<svg width="27" height="16" viewBox="0 0 27 16" fill="none" xmlns="http://www.w3.org/2000/svg">
<path d="M13.2414 0C14.2657 0 15.248 0.406896 15.9723 1.13117C16.6966 1.85545 17.1034 2.83778 17.1034 3.86207C17.1034 4.88635 16.6966 5.86869 15.9723 6.59296C15.248 7.31724 14.2657 7.72414 13.2414 7.72414C12.2171 7.72414 11.2348 7.31724 10.5105 6.59296C9.78621 5.86869 9.37931 4.88635 9.37931 3.86207C9.37931 2.83778 9.78621 1.85545 10.5105 1.13117C11.2348 0.406896 12.2171 0 13.2414 0V0ZM5.51724 2.75862C6.13517 2.75862 6.70897 2.92414 7.20552 3.22207C7.04 4.8 7.50345 6.3669 8.45241 7.59172C7.90069 8.65103 6.79724 9.37931 5.51724 9.37931C4.63928 9.37931 3.79728 9.03054 3.17647 8.40973C2.55566 7.78892 2.2069 6.94692 2.2069 6.06897C2.2069 5.19101 2.55566 4.34901 3.17647 3.7282C3.79728 3.10739 4.63928 2.75862 5.51724 2.75862V2.75862ZM20.9655 2.75862C21.8435 2.75862 22.6855 3.10739 23.3063 3.7282C23.9271 4.34901 24.2759 5.19101 24.2759 6.06897C24.2759 6.94692 23.9271 7.78892 23.3063 8.40973C22.6855 9.03054 21.8435 9.37931 20.9655 9.37931C19.6855 9.37931 18.5821 8.65103 18.0303 7.59172C18.9924 6.3497 19.439 4.78477 19.2772 3.22207C19.7738 2.92414 20.3476 2.75862 20.9655 2.75862V2.75862ZM6.06897 14.069C6.06897 11.7848 9.28 9.93103 13.2414 9.93103C17.2028 9.93103 20.4138 11.7848 20.4138 14.069V16H6.06897V14.069ZM0 16V14.3448C0 12.811 2.08552 11.52 4.91034 11.1448C4.25931 11.8952 3.86207 12.9324 3.86207 14.069V16H0ZM26.4828 16H22.6207V14.069C22.6207 12.9324 22.2234 11.8952 21.5724 11.1448C24.3972 11.52 26.4828 12.811 26.4828 14.3448V16Z" fill="black"/>
</svg>
